# xmcd
#
# Track frame offsets:
#	150
#	16362
#	32650
#	48705
#	74647
#	89500
#	108954
#	124070
#	147652
#	165190
#	182862
#	197067
#	214962
#
# Disc length: 3048 seconds
#
# Revision: 1
# Processed by: cddbd v1.5.1PL0 Copyright (c) Steve Scherf et al.
# Submitted via: audiograbber 1.83.01
#
DISCID=c30be60d
DTITLE=Billy Dunn and Blues Way - My Feet is Achin'
DYEAR=1994
DGENRE=Blues
TTITLE0=Gotta Find a Full-Time Lover
TTITLE1=You Can Turn Around (and Walk)
TTITLE2=Every Time it Rains (I Remember Your Love)
TTITLE3=She Was at Another Table
TTITLE4=Doing Me Wrong
TTITLE5=Come Here Baby!
TTITLE6=Come on and Rock Me
TTITLE7=My Feet is Achin'
TTITLE8=Don't Bother Me
TTITLE9=I Have the Blues
TTITLE10=Silent Invitation
TTITLE11=Catch Me (Instrumental)
TTITLE12=Pickup the Phone, Call Me
EXTD=
EXTT0=
EXTT1=
EXTT2=
EXTT3=
EXTT4=
EXTT5=
EXTT6=
EXTT7=
EXTT8=
EXTT9=
EXTT10=
EXTT11=
EXTT12=
PLAYORDER=
